<svg xmlns="http://www.w3.org/2000/svg" viewBox="0 0 600 600">
  <defs>
    <radialGradient id="bg" cx="50%" cy="35%" r="75%">
      <stop offset="0" stop-color="#FFFFFF"/>
      <stop offset="1" stop-color="#F7FFF4"/>
    </radialGradient>
  </defs>
  <rect width="600" height="600" rx="28" fill="url(#bg)"/>
  <g transform="translate(300 300)">
    <g fill="#FFFFFF" stroke="#E2E8F0" stroke-width="2">
      <path d="M0-230 C55-215 55-140 0-115 C-55-140 -55-215 0-230Z" transform="rotate(0)"/>
      <path d="M0-230 C55-215 55-140 0-115 C-55-140 -55-215 0-230Z" transform="rotate(25)"/>
      <path d="M0-230 C55-215 55-140 0-115 C-55-140 -55-215 0-230Z" transform="rotate(50)"/>
      <path d="M0-230 C55-215 55-140 0-115 C-55-140 -55-215 0-230Z" transform="rotate(75)"/>
      <path d="M0-230 C55-215 55-140 0-115 C-55-140 -55-215 0-230Z" transform="rotate(100)"/>
      <path d="M0-230 C55-215 55-140 0-115 C-55-140 -55-215 0-230Z" transform="rotate(125)"/>
      <path d="M0-230 C55-215 55-140 0-115 C-55-140 -55-215 0-230Z" transform="rotate(150)"/>
      <path d="M0-230 C55-215 55-140 0-115 C-55-140 -55-215 0-230Z" transform="rotate(175)"/>
      <path d="M0-230 C55-215 55-140 0-115 C-55-140 -55-215 0-230Z" transform="rotate(200)"/>
      <path d="M0-230 C55-215 55-140 0-115 C-55-140 -55-215 0-230Z" transform="rotate(225)"/>
      <path d="M0-230 C55-215 55-140 0-115 C-55-140 -55-215 0-230Z" transform="rotate(250)"/>
      <path d="M0-230 C55-215 55-140 0-115 C-55-140 -55-215 0-230Z" transform="rotate(275)"/>
      <path d="M0-230 C55-215 55-140 0-115 C-55-140 -55-215 0-230Z" transform="rotate(300)"/>
      <path d="M0-230 C55-215 55-140 0-115 C-55-140 -55-215 0-230Z" transform="rotate(325)"/>
    </g>
    <circle r="75" fill="#F9A825"/>
    <circle r="24" fill="rgba(255,255,255,0.28)"/>
  </g>
</svg>

