<svg xmlns="http://www.w3.org/2000/svg" viewBox="0 0 600 600">
  <defs>
    <radialGradient id="bg" cx="50%" cy="35%" r="75%">
      <stop offset="0" stop-color="#FFFFFF"/>
      <stop offset="1" stop-color="#F3F9FF"/>
    </radialGradient>
  </defs>
  <rect width="600" height="600" rx="28" fill="url(#bg)"/>
  <g transform="translate(300 300)">
    <g fill="#1E88E5">
      <path d="M0-210 L35-120 L0-90 L-35-120 Z" transform="rotate(0)"/>
      <path d="M0-210 L35-120 L0-90 L-35-120 Z" transform="rotate(30)"/>
      <path d="M0-210 L35-120 L0-90 L-35-120 Z" transform="rotate(60)"/>
      <path d="M0-210 L35-120 L0-90 L-35-120 Z" transform="rotate(90)"/>
      <path d="M0-210 L35-120 L0-90 L-35-120 Z" transform="rotate(120)"/>
      <path d="M0-210 L35-120 L0-90 L-35-120 Z" transform="rotate(150)"/>
      <path d="M0-210 L35-120 L0-90 L-35-120 Z" transform="rotate(180)"/>
      <path d="M0-210 L35-120 L0-90 L-35-120 Z" transform="rotate(210)"/>
      <path d="M0-210 L35-120 L0-90 L-35-120 Z" transform="rotate(240)"/>
      <path d="M0-210 L35-120 L0-90 L-35-120 Z" transform="rotate(270)"/>
      <path d="M0-210 L35-120 L0-90 L-35-120 Z" transform="rotate(300)"/>
      <path d="M0-210 L35-120 L0-90 L-35-120 Z" transform="rotate(330)"/>
    </g>
    <circle r="60" fill="#0D47A1"/>
    <circle r="20" fill="rgba(255,255,255,0.3)"/>
  </g>
</svg>

