<svg xmlns="http://www.w3.org/2000/svg" viewBox="0 0 600 600">
  <defs>
    <radialGradient id="bg" cx="50%" cy="35%" r="75%">
      <stop offset="0" stop-color="#FFFFFF"/>
      <stop offset="1" stop-color="#FFF7F7"/>
    </radialGradient>
  </defs>
  <rect width="600" height="600" rx="28" fill="url(#bg)"/>

  <!-- leaves -->
  <g fill="#2E7D32" opacity="0.85">
    <path d="M170 380 C120 340 105 280 150 250 C205 212 258 255 265 310 C230 320 200 345 170 380Z"/>
    <path d="M430 380 C480 340 495 280 450 250 C395 212 342 255 335 310 C370 320 400 345 430 380Z"/>
  </g>

  <!-- berries -->
  <g>
    <circle cx="250" cy="335" r="44" fill="#C62828"/>
    <circle cx="350" cy="335" r="44" fill="#C62828"/>
    <circle cx="300" cy="405" r="48" fill="#B71C1C"/>
    <circle cx="250" cy="335" r="16" fill="rgba(255,255,255,0.25)"/>
    <circle cx="350" cy="335" r="16" fill="rgba(255,255,255,0.25)"/>
    <circle cx="300" cy="405" r="18" fill="rgba(255,255,255,0.25)"/>
  </g>
</svg>

