<svg xmlns="http://www.w3.org/2000/svg" viewBox="0 0 600 600">
  <defs>
    <radialGradient id="bg" cx="50%" cy="35%" r="75%">
      <stop offset="0" stop-color="#FFFFFF"/>
      <stop offset="1" stop-color="#FFF3F3"/>
    </radialGradient>
  </defs>
  <rect width="600" height="600" rx="28" fill="url(#bg)"/>
  <g transform="translate(300 315)">
    <path d="M0-210 C90-220 190-140 160-40 C130 60 40 80 0 40 C-40 80 -130 60 -160 -40 C-190 -140 -90 -220 0-210Z" fill="#E53935"/>
    <path d="M0-190 C70-200 155-135 130-55 C110 5 45 30 0 10 C-45 30 -110 5 -130 -55 C-155 -135 -70 -200 0-190Z" fill="#F04A45" opacity="0.65"/>
    <circle r="58" fill="#1B1B1B"/>
    <circle r="18" fill="rgba(255,255,255,0.25)"/>
  </g>
</svg>

