<svg xmlns="http://www.w3.org/2000/svg" viewBox="0 0 600 600">
  <defs>
    <radialGradient id="bg" cx="50%" cy="40%" r="70%">
      <stop offset="0" stop-color="#FFFFFF"/>
      <stop offset="1" stop-color="#E8F4FD"/>
    </radialGradient>
  </defs>
  <rect width="600" height="600" rx="28" fill="url(#bg)"/>
  <g transform="translate(300 300)">
    <g fill="#FFD500">
      <path d="M0-230 C70-200 70-120 0-90 C-70-120 -70-200 0-230Z" transform="rotate(0)"/>
      <path d="M0-230 C70-200 70-120 0-90 C-70-120 -70-200 0-230Z" transform="rotate(30)"/>
      <path d="M0-230 C70-200 70-120 0-90 C-70-120 -70-200 0-230Z" transform="rotate(60)"/>
      <path d="M0-230 C70-200 70-120 0-90 C-70-120 -70-200 0-230Z" transform="rotate(90)"/>
      <path d="M0-230 C70-200 70-120 0-90 C-70-120 -70-200 0-230Z" transform="rotate(120)"/>
      <path d="M0-230 C70-200 70-120 0-90 C-70-120 -70-200 0-230Z" transform="rotate(150)"/>
      <path d="M0-230 C70-200 70-120 0-90 C-70-120 -70-200 0-230Z" transform="rotate(180)"/>
      <path d="M0-230 C70-200 70-120 0-90 C-70-120 -70-200 0-230Z" transform="rotate(210)"/>
      <path d="M0-230 C70-200 70-120 0-90 C-70-120 -70-200 0-230Z" transform="rotate(240)"/>
      <path d="M0-230 C70-200 70-120 0-90 C-70-120 -70-200 0-230Z" transform="rotate(270)"/>
      <path d="M0-230 C70-200 70-120 0-90 C-70-120 -70-200 0-230Z" transform="rotate(300)"/>
      <path d="M0-230 C70-200 70-120 0-90 C-70-120 -70-200 0-230Z" transform="rotate(330)"/>
    </g>
    <circle r="120" fill="#5D4E37"/>
    <circle r="55" fill="#6E5B3F" opacity="0.65"/>
    <circle r="18" fill="rgba(255,255,255,0.35)"/>
  </g>
</svg>

