<svg xmlns="http://www.w3.org/2000/svg" viewBox="0 0 600 600">
  <defs>
    <radialGradient id="bg" cx="50%" cy="35%" r="75%">
      <stop offset="0" stop-color="#FFFFFF"/>
      <stop offset="1" stop-color="#FFF5FB"/>
    </radialGradient>
  </defs>
  <rect width="600" height="600" rx="28" fill="url(#bg)"/>
  <g>
    <path d="M300 160 C250 170 220 220 220 270 C220 330 260 380 300 405 C340 380 380 330 380 270 C380 220 350 170 300 160Z" fill="#D81B60"/>
    <path d="M300 175 C270 190 255 225 255 270 C255 315 280 350 300 365 C320 350 345 315 345 270 C345 225 330 190 300 175Z" fill="#E91E63" opacity="0.65"/>
    <path d="M300 405 C295 460 295 490 300 520" stroke="#2E7D32" stroke-width="14" stroke-linecap="round"/>
    <path d="M300 445 C260 430 240 450 230 490 C260 500 285 490 300 470" fill="#2E7D32" opacity="0.9"/>
    <path d="M300 455 C340 440 360 460 370 500 C340 505 315 495 300 475" fill="#2E7D32" opacity="0.9"/>
  </g>
</svg>

